<svg xmlns="http://www.w3.org/2000/svg" xmlns:xlink="http://www.w3.org/1999/xlink" height="1022" viewBox="0 0 1280 1022" preserveAspectRatio="none">
    <defs>
        <linearGradient id="b" x1="50%" x2="89.759%" y1="73.119%" y2="22.829%">
            <stop offset="0%" stop-color="#F03C73"/>
            <stop offset="100%" stop-color="#F43F76"/>
        </linearGradient>
        <path id="a" d="M0 1022V244L1280 0v778z"/>
    </defs>
    <g fill="none" fill-rule="evenodd">
        <mask id="c" fill="#fff">
            <use xlink:href="#a"/>
        </mask>
        <use fill="url(#b)" xlink:href="#a"/>
        <use fill="#FFF" fill-opacity=".082" xlink:href="#a"/>
        <g mask="url(#c)">
            <path fill="#FFF" fill-opacity=".242" d="M1373.741 1032.845L1092.29 679.913c-16.976-21.286-13.123-52.025 8.604-68.656l139.623-106.871c21.728-16.631 53.103-12.857 70.078 8.43l281.453 352.932c16.975 21.286 13.123 52.025-8.605 68.655l-139.623 106.872c-21.727 16.631-53.102 12.857-70.078-8.43z"/>
            <path fill="#F789AB" d="M1330.662 1008.187l-214.621-395.453c-12.945-23.85-3.703-53.467 20.643-66.149l156.444-81.495c24.345-12.681 54.575-3.627 67.52 20.224l214.62 395.452c12.945 23.852 3.703 53.468-20.642 66.15l-156.445 81.494c-24.345 12.682-54.574 3.628-67.519-20.223z"/>
            <path fill="#F599B5" d="M1282.707 910.635l-128.9-385.475c-7.775-23.25 5.092-48.147 28.74-55.61l151.962-47.96c23.648-7.464 49.121 5.333 56.896 28.583l128.9 385.475c7.775 23.25-5.092 48.147-28.74 55.61l-151.962 47.96c-23.648 7.463-49.121-5.334-56.896-28.583z"/>
        </g>
    </g>
</svg>
